<?xml version="1.0" encoding="UTF-8"?>
<!DOCTYPE svg PUBLIC "-//W3C//DTD SVG 1.1//EN">
<!-- Creator: CorelDRAW 2018 (64-Bit) -->
<svg xmlns="http://www.w3.org/2000/svg" xml:space="preserve" width="500px" height="460px" version="1.1" style="shape-rendering:geometricPrecision; text-rendering:geometricPrecision; image-rendering:optimizeQuality; fill-rule:evenodd; clip-rule:evenodd"
viewBox="0 0 14.63 13.46">
 <defs>
  <style type="text/css">
   <![CDATA[
    .fil0 {fill:white}
   ]]>
  </style>
 </defs>
 <g id="Слой_x0020_1">
  <metadata id="CorelCorpID_0Corel-Layer"/>
  <g id="_2203124553760">
   <path class="fil0" d="M0.29 6.12l0 -0.05c0.1,0 0.17,0 0.23,0 0.05,0 0.13,0 0.25,0 0.11,0 0.19,-0.01 0.23,-0.01 0.04,0 0.08,0 0.12,0 0.04,0 0.07,0.01 0.1,0.01 -0.02,0.05 -0.03,0.14 -0.03,0.27l-0.06 0c0,-0.08 -0.01,-0.13 -0.02,-0.17 -0.03,-0.01 -0.07,-0.02 -0.12,-0.03 -0.04,0 -0.09,-0.01 -0.16,-0.01 -0.05,0 -0.12,0.01 -0.18,0.01 -0.01,0.04 -0.01,0.07 -0.01,0.1 0,0.01 0,0.08 0,0.2l0 0.2c0.06,0 0.12,0 0.17,0 0.08,0 0.14,0 0.19,-0.01 0.02,0 0.03,-0.01 0.03,-0.01 0.01,-0.01 0.01,-0.04 0.01,-0.08l0.01 -0.06 0.06 0 -0.01 0.2 0.01 0.22 -0.06 0 -0.01 -0.06c0,-0.06 0,-0.1 -0.01,-0.1 0,-0.01 -0.01,-0.02 -0.03,-0.02 -0.04,-0.01 -0.11,-0.01 -0.23,-0.01 -0.05,0 -0.09,0 -0.13,0l0 0.18c0,0.08 0,0.16 0,0.24 0,0.05 0.01,0.09 0.01,0.1 0.01,0.01 0.02,0.02 0.04,0.02 0.01,0.01 0.06,0.01 0.13,0.01l0 0.06c-0.08,-0.01 -0.15,-0.01 -0.23,-0.01 -0.07,0 -0.16,0 -0.29,0.01l0 -0.06c0.07,0 0.11,0 0.13,-0.01 0.01,0 0.02,-0.01 0.03,-0.02 0.01,-0.01 0.01,-0.04 0.02,-0.08 0,-0.02 0,-0.1 0,-0.26l0 -0.41c0,-0.09 0,-0.16 0,-0.24 0,-0.06 -0.01,-0.09 -0.02,-0.1 0,-0.01 -0.02,-0.02 -0.03,-0.02 -0.02,0.01 -0.06,0 -0.14,0z"/>
   <path class="fil0" d="M1.17 7.34l0 -0.06c0.05,0 0.08,-0.01 0.09,-0.01 0.01,0 0.02,-0.01 0.03,-0.02 0.01,-0.01 0.02,-0.03 0.04,-0.07 0.01,-0.02 0.05,-0.11 0.12,-0.25l0.22 -0.51c0.02,-0.05 0.08,-0.17 0.15,-0.37l0.06 0 0.38 0.9c0.07,0.14 0.1,0.23 0.13,0.27 0.01,0.02 0.02,0.04 0.04,0.05 0.01,0 0.04,0.01 0.09,0.01l0 0.06c-0.09,-0.01 -0.16,-0.01 -0.19,-0.01l-0.29 0.01 0 -0.06c0.06,0 0.1,-0.01 0.12,-0.01 0.01,0 0.02,-0.01 0.03,-0.01 0,-0.01 0.01,-0.02 0.01,-0.02 0,-0.02 -0.01,-0.03 -0.02,-0.06l-0.11 -0.27 -0.51 0 -0.1 0.23c-0.02,0.04 -0.03,0.07 -0.03,0.09 0,0.01 0,0.02 0.01,0.02 0,0.01 0.01,0.02 0.03,0.02 0.02,0 0.06,0.01 0.11,0.01l0 0.06c-0.1,-0.01 -0.17,-0.01 -0.22,-0.01 -0.06,0 -0.12,0 -0.19,0.01zm0.41 -0.51l0.46 0 -0.22 -0.54 -0.24 0.54z"/>
   <path class="fil0" d="M2.53 6.36l-0.06 0c0,-0.14 0,-0.24 -0.01,-0.29 0.06,0 0.17,0 0.3,0.01 0.11,0 0.19,0 0.23,0 0.04,0 0.14,0 0.28,0 0.11,0 0.18,-0.01 0.23,-0.01 0,0.07 -0.01,0.17 -0.01,0.3l-0.06 0 -0.01 -0.09c0,-0.05 -0.01,-0.08 -0.01,-0.09 0,0 0,-0.01 -0.01,-0.01 0,-0.01 -0.01,-0.01 -0.01,-0.01 -0.01,0 -0.04,0 -0.09,0 -0.05,-0.01 -0.09,-0.01 -0.12,-0.01l-0.11 0c-0.01,0.06 -0.01,0.14 -0.01,0.23l0 0.53c0,0.08 0,0.16 0,0.24 0,0.05 0.01,0.09 0.02,0.1 0,0.01 0.02,0.02 0.03,0.02 0.02,0.01 0.06,0.01 0.13,0.01l0 0.06c-0.11,-0.01 -0.19,-0.01 -0.24,-0.01 -0.02,0 -0.12,0 -0.28,0.01l0 -0.06c0.07,0 0.12,0 0.13,-0.01 0.02,0 0.02,-0.01 0.03,-0.02 0.01,-0.01 0.01,-0.04 0.01,-0.09 0,-0.01 0,-0.09 0.01,-0.25l0 -0.52c0,-0.02 0,-0.05 0,-0.08l-0.01 -0.15 -0.12 0c-0.08,0 -0.14,0 -0.18,0.01 -0.02,0 -0.03,0 -0.03,0.01 -0.01,0.01 -0.02,0.04 -0.02,0.09l-0.01 0.08z"/>
   <path class="fil0" d="M11.96 7.23l-0.03 0.08c-0.07,0.04 -0.14,0.07 -0.21,0.08 -0.06,0.02 -0.13,0.03 -0.21,0.03 -0.09,0 -0.18,-0.01 -0.26,-0.04 -0.07,-0.02 -0.15,-0.06 -0.2,-0.1 -0.06,-0.04 -0.11,-0.09 -0.15,-0.14 -0.04,-0.06 -0.07,-0.11 -0.09,-0.18 -0.01,-0.06 -0.02,-0.13 -0.02,-0.2 0,-0.19 0.06,-0.35 0.19,-0.48 0.14,-0.12 0.32,-0.18 0.55,-0.18 0.05,0 0.1,0 0.15,0.01 0.04,0 0.1,0.01 0.17,0.03 0.06,0.02 0.1,0.03 0.12,0.03 -0.02,0.03 -0.03,0.06 -0.03,0.09 -0.01,0.06 -0.02,0.12 -0.02,0.18l-0.06 0 0 -0.1c-0.01,-0.06 -0.04,-0.1 -0.1,-0.13 -0.05,-0.03 -0.14,-0.05 -0.26,-0.05 -0.08,0 -0.15,0.02 -0.21,0.04 -0.07,0.02 -0.11,0.05 -0.16,0.09 -0.04,0.05 -0.08,0.1 -0.11,0.17 -0.03,0.07 -0.04,0.16 -0.04,0.26 0,0.18 0.05,0.32 0.16,0.43 0.11,0.11 0.26,0.16 0.44,0.16 0.08,0 0.16,-0.01 0.23,-0.03 0.04,-0.01 0.09,-0.04 0.14,-0.07l0.01 0.02z"/>
   <path class="fil0" d="M12.04 7.39l0 -0.06c0.05,0 0.08,-0.01 0.09,-0.01 0.01,0 0.02,-0.01 0.03,-0.02 0.01,-0.01 0.03,-0.03 0.05,-0.07 0.01,-0.02 0.04,-0.1 0.11,-0.25l0.22 -0.5c0.03,-0.06 0.08,-0.18 0.16,-0.37l0.06 0 0.38 0.89c0.06,0.15 0.1,0.24 0.12,0.28 0.01,0.01 0.02,0.03 0.04,0.04 0.01,0 0.04,0.01 0.09,0.01l0 0.06c-0.09,0 -0.16,-0.01 -0.19,-0.01l-0.29 0.01 0 -0.06c0.07,0 0.11,-0.01 0.12,-0.01 0.01,0 0.02,-0.01 0.03,-0.01 0,-0.01 0.01,-0.02 0.01,-0.02 0,-0.01 -0.01,-0.03 -0.02,-0.05l-0.11 -0.28 -0.51 0 -0.1 0.23c-0.02,0.05 -0.02,0.08 -0.02,0.1 0,0 0,0.01 0,0.01 0.01,0.01 0.02,0.02 0.03,0.02 0.03,0 0.06,0.01 0.12,0.01l0 0.06c-0.1,0 -0.18,-0.01 -0.23,-0.01 -0.06,0 -0.12,0.01 -0.19,0.01zm0.42 -0.5l0.45 0 -0.22 -0.54 -0.23 0.54z"/>
   <path class="fil0" d="M13.4 6.42l-0.06 0c0,-0.15 0,-0.24 -0.01,-0.3 0.07,0 0.17,0.01 0.31,0.01 0.11,0 0.18,0.01 0.22,0.01 0.04,0 0.14,0 0.28,-0.01 0.11,0 0.19,0 0.23,0 0,0.07 -0.01,0.16 -0.01,0.29l-0.06 0 0 -0.08c-0.01,-0.06 -0.01,-0.09 -0.01,-0.09 0,0 -0.01,-0.01 -0.01,-0.01 -0.01,-0.01 -0.01,-0.01 -0.02,-0.01 -0.01,0 -0.04,0 -0.09,0 -0.05,-0.01 -0.09,-0.01 -0.12,-0.01l-0.11 0c0,0.06 -0.01,0.14 -0.01,0.23l0 0.53c0,0.08 0,0.16 0.01,0.23 0,0.06 0,0.09 0.01,0.1 0,0.01 0.02,0.02 0.03,0.03 0.02,0 0.06,0.01 0.13,0.01l0 0.06c-0.1,-0.01 -0.18,-0.01 -0.24,-0.01 -0.02,0 -0.11,0 -0.28,0.01l0 -0.06c0.08,0 0.12,-0.01 0.13,-0.01 0.02,-0.01 0.03,-0.01 0.03,-0.02 0.01,-0.01 0.02,-0.04 0.02,-0.09 0,-0.01 0,-0.09 0,-0.25l0 -0.52c0,-0.03 0,-0.06 0,-0.08l0 -0.15 -0.14 0c-0.08,0 -0.14,0 -0.18,0.01 -0.02,0 -0.03,0 -0.03,0.01 0,0 -0.01,0.04 -0.02,0.09l0 0.08z"/>
   <path class="fil0" d="M8.37 1.22l-0.01 0c-0.12,-0.19 -0.33,-0.29 -0.65,-0.29l-0.41 0 0 0.68 0.33 0c0.27,0 0.45,-0.01 0.55,-0.03l-0.12 0.65 -0.01 0c-0.02,-0.07 -0.07,-0.14 -0.15,-0.18 -0.07,-0.05 -0.16,-0.08 -0.25,-0.08l-0.35 0 0 0.58c0,0.14 0.02,0.26 0.06,0.35 0.04,0.09 0.09,0.15 0.14,0.19l0 0.01 -0.89 0 0 -0.01c0.05,-0.04 0.1,-0.1 0.14,-0.19 0.04,-0.09 0.06,-0.21 0.06,-0.35l0 -1.44c0,-0.16 -0.02,-0.28 -0.05,-0.36 -0.04,-0.09 -0.09,-0.14 -0.14,-0.18l0 -0.01 1.22 0c0.21,0 0.36,-0.01 0.47,-0.03l0.06 0.69z"/>
   <polygon class="fil0" points="7.01,12.22 7.06,12.36 7.11,12.23 "/>
   <polygon class="fil0" points="7.63,12.22 7.69,12.36 7.73,12.23 "/>
   <g>
    <path class="fil0" d="M5.63 10.35c0.04,-0.03 0.1,-0.03 0.14,-0.02 0.1,0.02 0.19,0.07 0.27,0.12 0.12,0.08 0.23,0.17 0.34,0.26 0.02,0.03 0.06,0.06 0.09,0.08 0.02,-0.01 0.04,-0.02 0.07,-0.03 0.21,-0.1 0.43,-0.15 0.66,-0.15 0.14,0 0.27,0 0.41,0 0.22,0.01 0.44,0.07 0.64,0.16 0.03,-0.02 0.06,-0.05 0.09,-0.07 0.13,-0.11 0.26,-0.21 0.4,-0.29 0.07,-0.03 0.13,-0.06 0.2,-0.08 0.05,-0.01 0.1,-0.01 0.14,0.02 0.04,0.04 0.06,0.09 0.07,0.15 0.01,0.11 -0.02,0.22 -0.04,0.32 -0.05,0.18 -0.12,0.34 -0.21,0.5 0.06,0.1 0.11,0.2 0.16,0.31 0.04,0.01 0.08,0 0.12,0 0.11,0.01 0.23,0.04 0.33,0.1 -0.14,-0.02 -0.29,-0.04 -0.43,-0.04 0.01,0.04 0.02,0.08 0.04,0.13 0.05,0.01 0.11,0.02 0.16,0.03 0.07,0.03 0.14,0.07 0.19,0.12 -0.11,-0.05 -0.22,-0.1 -0.35,-0.11 0.01,0.03 0.01,0.06 0.02,0.1 0.03,0.22 0,0.45 -0.08,0.66 -0.06,0.14 -0.14,0.28 -0.25,0.39 -0.12,0.11 -0.27,0.18 -0.43,0.21 -0.11,0.02 -0.21,0.01 -0.32,0.01 -0.08,0 -0.17,-0.01 -0.25,-0.01 -0.08,0 -0.16,0.03 -0.24,0.05 -0.06,0.01 -0.12,0.01 -0.17,0.01l-0.1 0c-0.07,0 -0.15,-0.01 -0.22,-0.02 -0.05,-0.01 -0.11,-0.04 -0.16,-0.03 -0.11,0 -0.22,0 -0.33,0 -0.11,0.01 -0.22,0 -0.33,-0.03 -0.18,-0.05 -0.34,-0.16 -0.45,-0.31 -0.17,-0.22 -0.25,-0.5 -0.24,-0.78 0,-0.08 0.01,-0.16 0.03,-0.25 -0.13,0.01 -0.25,0.06 -0.37,0.11 0.04,-0.04 0.09,-0.07 0.14,-0.09 0.07,-0.04 0.15,-0.05 0.23,-0.06 0.02,-0.04 0.03,-0.09 0.04,-0.13 -0.15,-0.01 -0.31,0.02 -0.46,0.04 0.1,-0.06 0.22,-0.09 0.34,-0.1 0.05,0 0.09,0.01 0.14,0.01 0.03,-0.05 0.05,-0.11 0.08,-0.17 0.02,-0.04 0.05,-0.08 0.07,-0.13 -0.02,-0.03 -0.05,-0.07 -0.07,-0.11 -0.06,-0.14 -0.12,-0.28 -0.16,-0.42 -0.03,-0.11 -0.05,-0.21 -0.04,-0.32 0.02,-0.05 0.04,-0.1 0.09,-0.14l0 0zm1.23 1.81c0,0.05 0.05,0.07 0.08,0.1 0.02,0.03 0.01,0.07 0.02,0.1 0.03,0.16 0.08,0.33 0.19,0.46 0.01,-0.01 0.03,-0.01 0.04,-0.02 0.02,0.03 0,0.09 0.03,0.11 0.05,0.04 0.11,0.06 0.17,0.06 0.06,0 0.12,-0.03 0.16,-0.08 0.01,-0.02 0,-0.05 0.01,-0.09 0.02,0.01 0.04,0.02 0.06,0.03 0.01,-0.01 0.02,-0.03 0.03,-0.05 0.1,-0.14 0.15,-0.31 0.16,-0.49 0,-0.02 0,-0.04 0.01,-0.05 0.02,-0.02 0.03,-0.05 0.03,-0.08 -0.04,0.03 -0.06,0.07 -0.11,0.09 -0.08,0.05 -0.19,0.05 -0.28,0 -0.04,-0.02 -0.07,-0.05 -0.1,-0.08 -0.07,0.05 -0.13,0.1 -0.22,0.11 -0.06,0 -0.11,-0.03 -0.16,-0.05 -0.04,-0.03 -0.08,-0.06 -0.12,-0.07z"/>
   </g>
   <g>
    <path class="fil0" d="M12.98 0.39c0.15,-0.1 0.37,-0.32 0.43,-0.32 0.03,0 0.05,0.02 0.04,0.04 0,0.03 -0.03,0.09 -0.09,0.15 -1.04,1.05 -2.09,2.09 -3.14,3.14 -0.05,0.08 -0.05,0.12 0.03,0.16l0.02 0.01c0.01,0 0.02,0.01 0.04,-0.01 0.24,-0.21 0.48,-0.42 0.7,-0.65 0,0 0,0 0,0 0.23,-0.21 0.46,-0.43 0.69,-0.66 0.65,-0.58 1.28,-1.18 1.92,-1.76l0.1 -0.09c0.06,-0.06 0.14,0.03 0.09,0.09l-0.09 0.09c-0.29,0.28 -0.53,0.59 -0.82,0.87 -0.75,0.83 -1.53,1.63 -2.28,2.46 -0.02,0.01 -0.01,0.04 0.02,0.06 0.04,0.02 0.07,0.07 0.15,-0.02 0.42,-0.42 0.85,-0.82 1.28,-1.24 0.56,-0.57 1.15,-1.11 1.72,-1.67 0.13,-0.12 0.26,-0.27 0.38,-0.34 0.03,-0.02 0.08,0.01 0.05,0.06 -0.18,0.25 -0.41,0.46 -0.61,0.7 -0.68,0.75 -1.35,1.48 -2.02,2.23 0,0 -0.01,0.01 -0.01,0.02 -0.12,0.16 -0.28,0.29 -0.41,0.44 -0.07,0.1 0.09,0.17 0.14,0.13 0.02,-0.02 0.02,-0.03 0.03,-0.04 0,0 0,0 0,0 1.1,-1.06 2.14,-2.13 3.18,-3.21 0.06,-0.05 0.13,0.03 0.1,0.07 -0.18,0.33 -0.43,0.6 -0.65,0.89 -0.66,0.85 -1.36,1.66 -2.12,2.41 0,0 0,0 0,0 -0.23,0.18 -0.4,0.41 -0.63,0.58 0,0 -0.01,0 -0.01,0 -0.31,0.34 -0.8,0.37 -1.24,0.41 0,0 0,0 0,0 -0.77,0.12 -1.37,0.67 -1.92,1.17 -0.01,0.02 -0.02,0.04 0,0.06 0.58,0.58 1.15,1.19 1.75,1.74 1.29,1.19 2.71,2.23 4.13,3.27 0.27,0.21 0.56,0.45 0.62,0.8 0,0 0,0.01 0,0.01 0.02,0.53 -0.52,0.97 -1.03,0.9 -0.33,-0.02 -0.61,-0.25 -0.8,-0.5 -1.19,-1.37 -2.38,-2.72 -3.65,-4.01 -0.57,-0.54 -1.12,-1.12 -1.76,-1.58 -0.01,-0.01 -0.03,-0.01 -0.04,0 -0.14,0.1 -0.26,0.23 -0.39,0.35 -0.28,0.28 -0.57,0.54 -0.84,0.81 0,0 0,0 0,0 -0.24,0.21 -0.44,0.47 -0.67,0.68 0,0 0,0 0,0 -0.99,1.03 -1.93,2.11 -2.85,3.19 -0.27,0.33 -0.51,0.68 -0.85,0.94 -0.37,0.3 -0.94,0.25 -1.28,-0.07 -0.19,-0.16 -0.26,-0.41 -0.3,-0.65 0,0 0,0 0,-0.01 0.02,-0.33 0.26,-0.6 0.52,-0.77 1.2,-0.77 2.36,-1.59 3.49,-2.47 0.85,-0.66 1.67,-1.36 2.5,-2.07 0.02,-0.02 0.01,-0.06 -0.02,-0.06 -0.12,-0.04 -0.26,-0.06 -0.36,-0.14 -0.26,-0.17 -0.44,-0.43 -0.66,-0.65 -1.01,-0.99 -2.03,-2 -3.02,-3.02 -0.61,-0.63 -1.22,-1.28 -1.64,-2.05 -0.11,-0.22 -0.24,-0.43 -0.27,-0.67 0,-0.01 0,-0.01 0,-0.01 0.01,-0.17 0.12,-0.31 0.26,-0.4 0,-0.01 0.01,-0.01 0.01,-0.01 0.21,-0.05 0.4,0.11 0.53,0.25 1.59,1.46 3.14,2.96 4.77,4.36 0.49,0.45 0.97,0.92 1.44,1.4 0.01,0.02 0.04,0.02 0.05,0 0.34,-0.3 0.66,-0.6 0.97,-0.93 0,0 0,0 0,0 0.11,-0.15 0.26,-0.27 0.33,-0.44 0.14,-0.29 0.12,-0.63 0.26,-0.92 0.25,-0.51 0.67,-0.89 1.1,-1.25 0.53,-0.43 1.03,-0.92 1.56,-1.35 0.36,-0.3 0.72,-0.6 1.07,-0.9l0 0zm-11.8 0.18c0.1,0.23 0.3,0.37 0.46,0.56 0,0 0,0 0,0 0.36,0.39 0.76,0.74 1.15,1.1 0.68,0.61 1.37,1.21 2.05,1.82 0.7,0.6 1.36,1.22 2.07,1.8 -0.45,-0.48 -0.95,-0.9 -1.42,-1.36 -1.19,-1.11 -2.37,-2.24 -3.57,-3.34 0,0 0,0 -0.01,0 -0.24,-0.18 -0.43,-0.46 -0.73,-0.58l0 0zm9.57 4.04c-0.21,0.13 -0.35,0.36 -0.59,0.45 0,0 0,0 0,0 -0.05,0.01 -0.09,0.01 -0.14,0.02 -0.04,0 -0.05,0.07 0,0.07 0.21,0.04 0.42,0.03 0.61,-0.07 0.17,-0.08 0.35,-0.17 0.47,-0.33 0.02,-0.02 0.01,-0.05 -0.02,-0.06 -0.11,-0.03 -0.22,-0.06 -0.33,-0.08l0 0zm2.77 6.98c0.25,0.23 0.53,0.46 0.65,0.78 0.07,0.15 0.03,0.32 0.05,0.48 0.04,-0.1 0.09,-0.2 0.08,-0.3 -0.03,-0.34 -0.28,-0.61 -0.53,-0.82 -0.06,-0.07 -0.16,-0.1 -0.25,-0.14l0 0zm-11.97 1.46c-0.17,0.11 -0.37,0.17 -0.53,0.29 0.39,-0.05 0.79,-0.28 0.96,-0.64 -0.15,0.11 -0.29,0.24 -0.43,0.35z"/>
   </g>
   <path class="fil0" d="M9.95 5.35c0,0 0,0 0,0 0.44,-0.04 0.93,-0.07 1.25,-0.41 0,0 0,0 0,0 0.23,-0.17 0.41,-0.4 0.64,-0.58 0,0 0,0 0,0 0.76,-0.76 1.46,-1.57 2.12,-2.42 0.23,-0.29 0.46,-0.53 0.63,-0.84 0.01,-0.01 0,-0.03 0,-0.04 -0.03,-0.01 -0.06,-0.04 -0.08,-0.06 -0.01,0 -0.02,0 -0.03,0.01 -1.03,1.07 -2.11,2.12 -3.16,3.19 -0.01,0.01 -0.02,0.02 -0.03,0.03l0 0c0,0.01 0,0.01 0,0.01 -0.04,0.04 -0.1,0.04 -0.14,0.01 -0.04,-0.04 -0.03,-0.1 0.01,-0.14 0,0 0,0 0,0l0 0c0.14,-0.15 0.29,-0.29 0.42,-0.45 0,0 0,0 0,0 0.67,-0.75 1.35,-1.49 2.03,-2.24 0.2,-0.24 0.41,-0.42 0.59,-0.66 0,0 0,-0.01 0,-0.02 -0.01,-0.02 -0.01,-0.06 -0.03,-0.07 -0.06,-0.02 -0.25,0.22 -0.37,0.32 -0.57,0.57 -1.17,1.11 -1.73,1.69 -0.43,0.41 -0.87,0.82 -1.29,1.24 0,0.01 -0.01,0.01 -0.01,0.01 -0.01,0.01 -0.01,0.01 -0.01,0.01 0,0 -0.01,0.01 -0.01,0.01 -0.04,0.03 -0.09,0.04 -0.12,0.01 -0.02,-0.03 -0.02,-0.07 0,-0.1l0 0c0,-0.01 0.01,-0.01 0.01,-0.01 0.74,-0.81 1.49,-1.63 2.26,-2.44 0.28,-0.3 0.54,-0.6 0.83,-0.88 0.1,-0.11 0.02,-0.06 0.03,-0.12 0.01,-0.02 -0.03,-0.04 -0.05,-0.04 -0.02,0.01 -0.04,0.02 -0.08,0.06 -0.65,0.59 -1.29,1.19 -1.94,1.78 -0.23,0.23 -0.46,0.44 -0.7,0.66 0,0 0,0 0,0 -0.22,0.24 -0.46,0.44 -0.7,0.66 0,0 -0.01,0 -0.01,0 0,0 0,0 0,0 0,0 0,0 0,0 -0.04,0.03 -0.09,0.03 -0.12,0 -0.03,-0.03 -0.03,-0.09 0,-0.12 0,0 0.01,0 0.01,0 0,0 0,-0.01 0,-0.01 1.06,-1.06 2.08,-2.17 3.19,-3.19 0.05,-0.05 0.08,-0.09 0.1,-0.14 0,-0.02 -0.04,-0.06 -0.06,-0.05 -0.06,0.03 -0.12,0.08 -0.2,0.14 -0.08,0.07 -0.17,0.13 -0.22,0.19 0,0 0,0 0,0 -0.27,0.21 -0.63,0.52 -1.08,0.89 -0.29,0.25 -0.87,0.73 -1.57,1.37 -0.95,0.88 -1,1.06 -1.1,1.25 -0.15,0.29 -0.13,0.63 -0.27,0.93 -0.07,0.17 -0.22,0.29 -0.34,0.44 0,0 0,0 0,0 -0.31,0.33 -0.64,0.64 -0.98,0.95 -0.01,0.01 -0.02,0.01 -0.03,0 -0.47,-0.49 -0.96,-0.97 -1.46,-1.42 -1.64,-1.42 -3.19,-2.93 -4.8,-4.39 -0.14,-0.14 -0.32,-0.3 -0.54,-0.25 0,0 0,0 -0.01,0.01 -0.14,0.09 -0.25,0.23 -0.26,0.4 0,0 0,0.01 0,0.01 0.04,0.24 0.17,0.46 0.27,0.67 0.43,0.78 1.04,1.44 1.66,2.07 1,1.02 2.01,2.04 3.03,3.04 0.22,0.22 0.4,0.48 0.66,0.66 0.12,0.08 0.26,0.1 0.4,0.14 0.02,0.01 0.03,0.03 0.01,0.04 -0.83,0.72 -1.66,1.43 -2.53,2.11 -1.14,0.88 -2.31,1.71 -3.52,2.48 -0.26,0.18 -0.51,0.45 -0.52,0.78 0,0 0,0 0,0 0.04,0.24 0.11,0.49 0.3,0.66 0.34,0.32 0.92,0.37 1.29,0.07 0.34,-0.26 0.59,-0.62 0.86,-0.94 0.93,-1.1 1.87,-2.18 2.86,-3.22 0,0 0,0 0,0 0.24,-0.22 0.43,-0.47 0.68,-0.68 0,0 0,0 0,0 0.27,-0.28 0.56,-0.54 0.84,-0.82 0.13,-0.13 0.25,-0.26 0.4,-0.37 0.01,0 0.02,0 0.03,0 0.64,0.47 1.2,1.05 1.77,1.61 1.28,1.29 2.48,2.65 3.67,4.03 0.19,0.25 0.47,0.48 0.81,0.51 0.51,0.06 1.06,-0.38 1.03,-0.92 0,0 0,0 0,0 -0.06,-0.36 -0.36,-0.6 -0.62,-0.81 -1.43,-1.05 -2.86,-2.09 -4.15,-3.29 -0.62,-0.56 -1.19,-1.18 -1.78,-1.76 -0.01,-0.01 -0.01,-0.03 0,-0.04 0.58,-0.53 1.18,-1.09 1.96,-1.21zm-0.03 -0.29c0.07,-0.02 0.14,-0.02 0.22,-0.04 0,0 0,0 0,0 0.24,-0.08 0.38,-0.31 0.59,-0.45 0.13,0.02 0.25,0.05 0.36,0.1 0.02,0 0.02,0.02 0.02,0.03 -0.12,0.17 -0.31,0.27 -0.5,0.36 -0.21,0.1 -0.46,0.11 -0.69,0.05 -0.02,-0.01 -0.02,-0.04 0,-0.05zm-8.98 8.3c0.16,-0.12 0.36,-0.18 0.53,-0.29 0.15,-0.11 0.29,-0.24 0.44,-0.35 -0.18,0.36 -0.57,0.59 -0.97,0.64zm3.85 -9.35c-0.69,-0.61 -1.38,-1.22 -2.06,-1.83 -0.4,-0.36 -0.79,-0.72 -1.17,-1.11 0,0 0,0 0,0 -0.15,-0.19 -0.36,-0.33 -0.45,-0.56 0.3,0.11 0.49,0.4 0.74,0.58 0,0 0,0 0,0 1.21,1.11 2.4,2.24 3.6,3.36 0.47,0.47 0.97,0.89 1.43,1.38 -0.72,-0.59 -1.39,-1.22 -2.09,-1.82zm8.99 7.73c0.25,0.21 0.5,0.48 0.53,0.82 0.01,0.11 -0.05,0.2 -0.08,0.3 -0.02,-0.16 0.02,-0.33 -0.05,-0.48 -0.12,-0.33 -0.4,-0.55 -0.65,-0.79 0.08,0.04 0.18,0.08 0.25,0.15z"/>
   <path class="fil0" d="M14.6 1.08c-0.01,0.03 -0.06,0.04 -0.09,0.02 -0.04,-0.02 -0.05,-0.06 -0.03,-0.09 0.03,-0.04 0.07,-0.05 0.11,-0.03 0.03,0.02 0.04,0.06 0.01,0.1z"/>
   <circle class="fil0" cx="14.17" cy="0.71" r="0.05"/>
   <circle class="fil0" cx="13.73" cy="0.42" r="0.06"/>
   <circle class="fil0" cx="13.42" cy="0.04" r="0.04"/>
  </g>
 </g>
</svg>
